<?xml version="1.0" encoding="UTF-8" standalone="no"?>
<svg
   xmlns:dc="http://purl.org/dc/elements/1.1/"
   xmlns:cc="http://creativecommons.org/ns#"
   xmlns:rdf="http://www.w3.org/1999/02/22-rdf-syntax-ns#"
   xmlns:svg="http://www.w3.org/2000/svg"
   xmlns="http://www.w3.org/2000/svg"
   xmlns:sodipodi="http://sodipodi.sourceforge.net/DTD/sodipodi-0.dtd"
   xmlns:inkscape="http://www.inkscape.org/namespaces/inkscape"
   inkscape:version="1.0rc1 (09960d6f05, 2020-04-09)"
   sodipodi:docname="birthday-enable-logo.svg"
   viewBox="0 0 108 108"
   height="108"
   width="108"
   id="svg2"
   version="1.1"
   inkscape:export-filename="C:\Users\Utilizador\Google Drive\Twitch\Arte - Imagens Comuns\birthday-enable-logo.png"
   inkscape:export-xdpi="96"
   inkscape:export-ydpi="96">
  <metadata
     id="metadata8">
    <rdf:RDF>
      <cc:Work
         rdf:about="">
        <dc:format>image/svg+xml</dc:format>
        <dc:type
           rdf:resource="http://purl.org/dc/dcmitype/StillImage" />
        <dc:title />
      </cc:Work>
    </rdf:RDF>
  </metadata>
  <defs
     id="defs6" />
  <sodipodi:namedview
     inkscape:current-layer="g10"
     inkscape:window-maximized="1"
     inkscape:window-y="-8"
     inkscape:window-x="-8"
     inkscape:cy="200.08963"
     inkscape:cx="74.259694"
     inkscape:zoom="1.4486607"
     showgrid="false"
     id="namedview4"
     inkscape:window-height="1027"
     inkscape:window-width="1920"
     inkscape:pageshadow="2"
     inkscape:pageopacity="0"
     guidetolerance="10"
     gridtolerance="10"
     objecttolerance="10"
     borderopacity="1"
     bordercolor="#666666"
     pagecolor="#ffffff"
     inkscape:document-rotation="0" />
  <g
     id="g10"
     inkscape:label="Image"
     inkscape:groupmode="layer">
    <circle
       r="53.192604"
       cy="54"
       cx="54"
       id="path20"
       style="fill:#535353;stroke-width:0.25" />
    <g
       transform="translate(0.48658725,-4.453379)"
       id="g47">
      <g
         id="g49"
         transform="matrix(0.398292,0,0,0.398292,107.4866,17.746253)"
         inkscape:export-xdpi="96"
         inkscape:export-ydpi="96"
         style="stroke-width:2.51071">
        <g
           id="g57"
           transform="translate(120.73035,26.850539)"
           inkscape:export-xdpi="96"
           inkscape:export-ydpi="96"
           style="stroke-width:2.51071">
          <path
             inkscape:connector-curvature="0"
             id="path22"
             d="m -260.57565,146.93637 c -0.18312,-1.92146 0.94393,-11.83216 1.90394,-16.74271 1.17935,-6.03227 1.29924,-10.45754 0.42768,-15.78755 -0.50003,-3.058 -0.52346,-4.45782 -0.19041,-11.37257 0.20895,-4.336953 0.34916,-9.665443 0.31176,-11.841113 -0.0675,-3.92282 -0.0565,-3.98933 1.31484,-7.9853 1.9494,-5.68031 1.86972,-6.76032 -0.47319,-6.41419 -1.04884,0.15498 -1.08147,0.12759 -0.835,-0.69993 0.74799,-2.51124 0.87256,-2.25135 -1.50824,-3.14671 -6.82688,-2.5674 -11.91508,-5.93016 -15.81839,-10.45426 -5.13958,-5.956983 -8.38054,-13.350423 -10.00725,-22.829073 -0.48075,-2.80131 -0.5067,-4.24777 -0.19082,-10.63433 0.40204,-8.129315 0.93513,-10.816764 3.39398,-17.110775 4.02245,-10.2964807 11.34774,-18.2865737 19.91881,-21.7265317 14.31123,-5.7437533 29.4895,1.811517 36.91386,18.374567 4.67643,10.4326537 6.18886,18.6549797 5.28441,28.7288297 -0.72725,8.10016 -2.56658,14.11758 -6.26688,20.50249 -4.68352,8.081423 -10.13171,12.674063 -18.70297,15.766003 -4.10303,1.48012 -4.28197,1.58529 -5.50119,3.23364 -1.26363,1.70842 -2.23879,2.11832 -3.00958,1.26508 -0.23377,-0.25876 -0.41664,0.0469 -0.62145,1.03887 -0.15964,0.77305 -0.82362,2.86058 -1.47555,4.63896 -1.18328,3.22779 -1.18541,3.2426 -1.22505,8.50115 -0.0218,2.89727 -0.19023,8.002023 -0.37427,11.343923 -0.27973,5.08054 -0.2393,6.86353 0.24672,10.88138 0.71858,5.94017 0.52333,10.63052 -0.70458,16.92624 -0.48981,2.5112 -1.11933,7.25907 -1.39895,10.55082 -0.37616,4.42792 -0.61425,5.97965 -0.91504,5.96438 -0.22363,-0.0113 -0.44737,-0.44846 -0.49719,-0.97129 z"
             style="fill:#000000;fill-opacity:1;stroke-width:0.62768"
             inkscape:export-xdpi="96"
             inkscape:export-ydpi="96" />
          <path
             inkscape:export-ydpi="96"
             inkscape:export-xdpi="96"
             style="fill:#cccccc;fill-opacity:1;stroke-width:0.62768"
             d="m -259.93059,136.66335 c -0.16779,-1.76062 0.86491,-10.84168 1.74456,-15.34116 1.08063,-5.52731 1.19048,-9.58213 0.39188,-14.46596 -0.45817,-2.80201 -0.47964,-4.08465 -0.17447,-10.420555 0.19146,-3.9739 0.31993,-8.85634 0.28566,-10.84988 -0.0619,-3.59444 -0.0518,-3.65538 1.20477,-7.31684 1.78622,-5.20481 1.71321,-6.19441 -0.43357,-5.87725 -0.96104,0.142 -0.99094,0.1169 -0.76511,-0.64134 0.68538,-2.30102 0.79952,-2.06289 -1.38198,-2.8833 -6.25539,-2.35248 -10.91766,-5.43374 -14.49422,-9.57912 -4.70934,-5.45832 -7.67899,-12.23284 -9.16953,-20.91803 -0.4405,-2.56681 -0.46428,-3.89219 -0.17484,-9.744119 0.36838,-7.448799 0.85685,-9.911279 3.10986,-15.678412 3.68573,-9.4345525 10.39781,-16.7557865 18.25139,-19.9077825 13.11322,-5.2629365 27.0209,1.659873 33.82376,16.836413 4.28497,9.5593265 5.67079,17.0933515 4.84205,26.3239105 -0.66637,7.42209 -2.35173,12.93578 -5.74227,18.78621 -4.29146,7.40491 -9.28358,11.6131 -17.13733,14.44621 -3.75956,1.35622 -3.92352,1.45258 -5.04068,2.96295 -1.15785,1.5654 -2.05138,1.94099 -2.75765,1.15918 -0.2142,-0.2371 -0.38176,0.043 -0.56942,0.9519 -0.14628,0.70834 -0.75468,2.62112 -1.35203,4.25063 -1.08423,2.95759 -1.08618,2.97116 -1.1225,7.78951 -0.02,2.65474 -0.17431,7.33216 -0.34294,10.39431 -0.25632,4.655235 -0.21927,6.288965 0.22606,9.970485 0.65843,5.44291 0.47953,9.74062 -0.64559,15.50932 -0.44881,2.30099 -1.02563,6.65141 -1.28185,9.6676 -0.34467,4.05726 -0.56283,5.47909 -0.83844,5.4651 -0.20491,-0.0104 -0.40992,-0.41092 -0.45557,-0.88998 z"
             id="path30"
             inkscape:connector-curvature="0" />
        </g>
      </g>
      <path
         inkscape:connector-curvature="0"
         id="path32"
         d="m 52.63542,90.598838 c 0.299687,-1.040813 1.093626,-3.350462 1.764302,-5.132555 l 1.219414,-3.240171 0.17973,-1.850621 c 0.180505,-1.85846 0.315227,-2.531864 1.308951,-6.542736 0.875943,-3.535488 1.297611,-4.82568 1.909745,-5.843347 0.296805,-0.493406 0.653024,-1.220187 0.791626,-1.615045 l 0.252019,-0.71792 -0.465344,-0.257218 c -0.412886,-0.228278 -0.451667,-0.296154 -0.344232,-0.602234 0.16309,-0.464579 0.06978,-0.586912 -1.242929,-1.629557 -2.418398,-1.92084 -3.595877,-3.321224 -4.66627,-5.549606 -1.385113,-2.883597 -1.889458,-5.700879 -1.666016,-9.306315 0.09194,-1.483354 0.102325,-1.524321 1.28235,-5.057423 1.121426,-3.357675 1.227332,-3.619252 1.846465,-4.560935 0.84355,-1.282738 2.337552,-3.071334 3.260434,-3.902854 2.860883,-2.577645 6.850347,-4.004625 9.814472,-3.510481 1.321243,0.220255 4.056083,1.323051 4.819661,1.943489 2.691052,2.186549 4.483637,5.60767 5.033247,9.605905 0.258954,1.883807 0.351816,4.260834 0.23831,6.100451 -0.08216,1.331557 -0.106755,1.424779 -1.190658,4.513323 -1.215108,3.462003 -1.494694,4.028538 -2.898044,5.869219 -1.527789,2.003924 -3.223983,3.46294 -5.232414,4.500757 -1.202937,0.621588 -2.057357,0.882427 -4.072085,1.243091 -2.664319,0.476948 -3.889433,0.82486 -4.155986,1.180228 -0.642983,0.857208 -1.868914,3.24622 -2.109204,4.11023 -0.724468,2.605178 -1.855848,7.730064 -2.176131,9.857386 l -0.3639,2.416972 -1.366743,3.851521 c -0.751684,2.118361 -1.580252,4.339161 -1.841204,4.935161 l -0.474477,1.083626 z"
         style="fill:#000000;fill-opacity:1;stroke-width:0.25"
         inkscape:export-xdpi="96"
         inkscape:export-ydpi="96" />
      <path
         inkscape:export-ydpi="96"
         inkscape:export-xdpi="96"
         style="fill:#535353;fill-opacity:1;stroke-width:0.25"
         d="m 53.563871,87.222134 c 0.277314,-0.963111 1.011987,-3.100344 1.632598,-4.749411 l 1.12839,-2.998304 0.166314,-1.71247 c 0.167028,-1.719726 0.291698,-2.342862 1.211238,-6.054343 0.810556,-3.271553 1.200747,-4.465456 1.767185,-5.407153 0.274651,-0.456571 0.604282,-1.129094 0.732535,-1.494473 l 0.233205,-0.66433 -0.430607,-0.238034 c -0.382065,-0.211224 -0.417951,-0.27403 -0.318533,-0.557262 0.150913,-0.429918 0.06457,-0.543105 -1.150148,-1.50792 -2.237868,-1.77745 -3.327451,-3.073308 -4.317944,-5.135338 -1.281715,-2.668339 -1.748414,-5.275321 -1.541652,-8.611625 0.08507,-1.372623 0.09469,-1.410537 1.186627,-4.679889 1.037715,-3.107032 1.135714,-3.349085 1.708629,-4.220464 0.780585,-1.187001 2.16306,-2.84209 3.017055,-3.611528 2.647323,-2.385235 6.33898,-3.705687 9.081837,-3.248435 1.222614,0.203812 3.753305,1.22429 4.459887,1.798422 2.490169,2.023336 4.14894,5.189071 4.657523,8.888837 0.239629,1.743199 0.325555,3.94277 0.220523,5.645059 -0.07603,1.232171 -0.09877,1.318422 -1.101777,4.176415 -1.124405,3.203592 -1.383119,3.727826 -2.681711,5.431109 -1.413745,1.854327 -2.983322,3.204429 -4.841829,4.164771 -1.113142,0.575197 -1.903779,0.816554 -3.768114,1.150309 -2.46543,0.441348 -3.599092,0.76329 -3.845751,1.092118 -0.59498,0.793222 -1.7294,3.003898 -1.951755,3.803411 -0.670385,2.41071 -1.717311,7.153036 -2.013688,9.121559 l -0.336736,2.236548 -1.264716,3.564015 c -0.695574,1.960216 -1.46229,4.015246 -1.703766,4.566758 l -0.439058,1.002743 z"
         id="path37"
         inkscape:connector-curvature="0" />
      <g
         id="g41"
         transform="matrix(0.398292,0,0,0.398292,20.588304,-9.7151682)"
         inkscape:export-xdpi="96"
         inkscape:export-ydpi="96"
         style="stroke-width:2.51071">
        <path
           inkscape:connector-curvature="0"
           id="path35"
           d="m 82.871921,257.9918 c -0.75818,-0.82592 -2.34781,-7.98308 -3.22682,-14.52837 -1.17666,-8.76181 -1.86386,-11.41138 -4.33335,-16.70719 -2.41318,-5.1751 -2.54653,-5.56961 -4.37518,-12.94386 -0.79993,-3.22578 -1.84258,-6.7621 -2.31699,-7.85848 -1.23304,-2.8495 -1.94989,-6.93805 -1.74635,-9.96014 0.0935,-1.3877 0.0138,-3.35244 -0.17708,-4.3661 l -0.3466,-1.84311 -1.48159,0.28353 c -1.59306,0.30486 -1.57171,0.33461 -1.44289,-2.00862 0.0152,-0.27624 -1.05936,-0.48835 -3.1216,-0.61618 -1.72965,-0.10721 -3.33399,-0.29168 -3.56524,-0.4099 -0.23126,-0.11824 -1.51393,-0.40383 -2.850392,-0.63466 -3.983596,-0.68802 -8.019778,-2.4281 -12.283287,-5.29559 -7.358126,-4.94882 -12.736543,-11.86253 -16.587663,-21.32269 -1.865941,-4.58363 -3.846324,-14.52248 -3.877013,-19.45736 -0.08013,-12.88556 4.986273,-24.7804 13.262169,-31.13679 3.348145,-2.57158 6.138671,-3.79101 10.651643,-4.65465 7.597195,-1.45385 13.644763,-0.10741 21.015623,4.679 6.43785,4.18053 12.08471,10.8504 17.1294,20.23255 4.24103,7.88751 6.43813,20.17527 5.26697,29.45663 -0.85517,6.77718 -3.09434,12.71661 -6.68709,17.73745 -1.95074,2.72615 -2.85565,3.63392 -6.31778,6.33756 -2.2225,1.7356 -4.58031,3.85078 -5.2396,4.70039 -0.65929,0.84961 -1.48268,1.57366 -1.82973,1.60902 -0.51655,0.0526 -0.60103,0.29952 -0.46566,1.36091 0.091,0.71316 0.15009,3.3467 0.13139,5.85228 l -0.034,4.55564 1.55452,4.28546 c 0.85498,2.35701 2.19211,6.85326 2.97137,9.99168 1.18809,4.7849 1.74067,6.40956 3.42238,10.06239 2.87209,6.23843 3.58113,8.72751 4.46064,15.65922 0.40727,3.2096 1.29531,8.30634 1.97341,11.32606 1.12763,5.02141 1.24756,6.46446 0.46679,5.61385 z"
           style="fill:#000000;fill-opacity:1;stroke-width:0.62768"
           inkscape:export-xdpi="96"
           inkscape:export-ydpi="96" />
        <path
           inkscape:export-ydpi="96"
           inkscape:export-xdpi="96"
           style="fill:#ffffff;fill-opacity:1;stroke-width:0.62768"
           d="m 79.738281,247.02888 c -0.68759,-0.74902 -2.12921,-7.23982 -2.92638,-13.17572 -1.06711,-7.94605 -1.69034,-10.34893 -3.9299,-15.15168 -2.18851,-4.69328 -2.30944,-5.05106 -3.96784,-11.73873 -0.72545,-2.92545 -1.67102,-6.13253 -2.10127,-7.12683 -1.11823,-2.5842 -1.76834,-6.29209 -1.58375,-9.03281 0.0848,-1.2585 0.0125,-3.04032 -0.16059,-3.9596 l -0.31434,-1.67151 -1.34365,0.25714 c -1.44474,0.27647 -1.42537,0.30346 -1.30854,-1.82161 0.0138,-0.25052 -0.96073,-0.44289 -2.83097,-0.55881 -1.56861,-0.0972 -3.02358,-0.26452 -3.23331,-0.37174 -0.20972,-0.10723 -1.372974,-0.36624 -2.585004,-0.57557 -3.612707,-0.62396 -7.273104,-2.20204 -11.139663,-4.80255 -6.673055,-4.48807 -11.55072,-10.75808 -15.043285,-19.33746 -1.692214,-4.15688 -3.488215,-13.17038 -3.516047,-17.6458 -0.07267,-11.68586 4.522031,-22.47325 12.027407,-28.23783 3.036419,-2.33216 5.567136,-3.43805 9.659932,-4.22128 6.889866,-1.3185 12.37438,-0.0974 19.05899,4.24337 5.83846,3.79129 10.95957,9.84017 15.53457,18.34881 3.84617,7.15315 5.83872,18.29687 4.7766,26.7141 -0.77555,6.1462 -2.80625,11.53264 -6.0645,16.08602 -1.76911,2.47234 -2.58977,3.29558 -5.72956,5.74751 -2.01558,1.57401 -4.15386,3.49225 -4.75177,4.26276 -0.59791,0.77051 -1.34464,1.42715 -1.65938,1.45921 -0.46845,0.0477 -0.54507,0.27164 -0.42231,1.23421 0.0825,0.64676 0.13613,3.03511 0.11917,5.30741 l -0.0308,4.13149 1.40978,3.88646 c 0.77538,2.13757 1.98801,6.2152 2.69473,9.06142 1.07747,4.33941 1.5786,5.8128 3.10374,9.12554 2.60469,5.65761 3.24771,7.91494 4.04534,14.20129 0.36934,2.91077 1.17471,7.53298 1.78967,10.27155 1.02264,4.5539 1.13141,5.86259 0.42333,5.09118 z"
           id="path24"
           inkscape:connector-curvature="0" />
      </g>
    </g>
  </g>
</svg>
